<?xml version="1.0" encoding="utf-8"?>
<!-- Generator: Adobe Illustrator 16.0.0, SVG Export Plug-In . SVG Version: 6.00 Build 0)  -->
<!DOCTYPE svg PUBLIC "-//W3C//DTD SVG 1.1//EN" "http://www.w3.org/Graphics/SVG/1.1/DTD/svg11.dtd">
<svg version="1.1" id="Layer_1" xmlns="http://www.w3.org/2000/svg" xmlns:xlink="http://www.w3.org/1999/xlink" x="0px" y="0px"
	 width="34.02px" height="34.02px" viewBox="0 0 34.02 34.02" enable-background="new 0 0 34.02 34.02" xml:space="preserve">
<path d="M22.729,22.104c-0.365,1.326-0.832,2.287-2.34,2.287c-1.535,0-2.211-0.961-2.211-2.574v-0.104h-0.053
	c-0.494,0.807-1.637,2.678-3.898,2.678c-1.82,0-2.939-1.273-2.939-3.275c0-3.328,2.912-4.369,5.668-5.617l1.223-0.571v-1.222
	c0-1.951-0.234-3.172-1.977-3.172c-1.014,0-1.793,0.467-1.793,1.248c0,0.623,0.416,0.91,0.416,1.611c0,0.624-0.547,1.04-1.379,1.04
	c-0.91,0-1.43-0.649-1.43-1.794c0-1.872,1.846-3.016,4.367-3.016c2.602,0,4.238,1.299,4.238,4.134v8.347
	c0,0.806,0.078,1.222,0.572,1.222c0.443,0,0.625-0.39,0.938-1.222H22.729z M18.178,20.7V15.89l-1.145,0.547
	c-2.002,0.936-3.328,2.184-3.328,4.029c0,1.404,0.703,2.105,1.717,2.105S17.189,21.974,18.178,20.7z"/>
</svg>
