<?xml version="1.0" encoding="utf-8"?>
<!-- Generator: Adobe Illustrator 16.0.0, SVG Export Plug-In . SVG Version: 6.00 Build 0)  -->
<!DOCTYPE svg PUBLIC "-//W3C//DTD SVG 1.1//EN" "http://www.w3.org/Graphics/SVG/1.1/DTD/svg11.dtd">
<svg version="1.1" id="Layer_1" xmlns="http://www.w3.org/2000/svg" xmlns:xlink="http://www.w3.org/1999/xlink" x="0px" y="0px"
	 width="34.02px" height="34.02px" viewBox="0 0 34.02 34.02" enable-background="new 0 0 34.02 34.02" xml:space="preserve">
<path d="M20.322,17.007c0,1.871-1.439,3.392-3.311,3.392c-1.895,0-3.318-1.521-3.318-3.392c0-1.91,1.424-3.39,3.318-3.39
	C18.883,13.617,20.322,15.097,20.322,17.007z M20.051,17.007c0-1.727-1.328-3.117-3.039-3.117c-1.759,0-3.046,1.391-3.046,3.117
	c0,1.735,1.287,3.12,3.046,3.12C18.723,20.127,20.051,18.742,20.051,17.007z M18.875,18.886v0.192h-0.991l-1.079-1.759H16.7h-0.448
	v0.936c0,0.487,0.057,0.631,0.433,0.631v0.192h-1.423v-0.192c0.375,0,0.432-0.144,0.432-0.631v-2.511
	c0-0.487-0.057-0.632-0.432-0.632v-0.191h1.423c1.151,0,1.663,0.432,1.663,1.199c0,0.592-0.296,0.983-0.96,1.135l0.712,1.128
	C18.371,18.814,18.588,18.886,18.875,18.886z M17.764,16.12c0-0.68-0.416-0.928-1.063-0.928c-0.2,0-0.336,0.016-0.448,0.056v1.8
	h0.368C17.348,17.048,17.764,16.8,17.764,16.12z"/>
</svg>
