<?xml version="1.0" encoding="utf-8"?>
<!-- Generator: Adobe Illustrator 16.0.0, SVG Export Plug-In . SVG Version: 6.00 Build 0)  -->
<!DOCTYPE svg PUBLIC "-//W3C//DTD SVG 1.1//EN" "http://www.w3.org/Graphics/SVG/1.1/DTD/svg11.dtd">
<svg version="1.1" id="Layer_1" xmlns="http://www.w3.org/2000/svg" xmlns:xlink="http://www.w3.org/1999/xlink" x="0px" y="0px"
	 width="34.02px" height="34.02px" viewBox="0 0 34.02 34.02" enable-background="new 0 0 34.02 34.02" xml:space="preserve">
<path d="M22.396,19.422c-0.365,1.326-0.832,2.287-2.34,2.287c-1.535,0-2.211-0.961-2.211-2.574v-0.104h-0.053
	c-0.494,0.807-1.637,2.678-3.898,2.678c-1.82,0-2.939-1.273-2.939-3.275c0-3.328,2.912-4.369,5.668-5.617l1.223-0.572v-1.222
	c0-1.95-0.234-3.172-1.977-3.172c-1.014,0-1.793,0.468-1.793,1.248c0,0.624,0.416,0.91,0.416,1.612c0,0.623-0.547,1.039-1.379,1.039
	c-0.91,0-1.43-0.649-1.43-1.793c0-1.873,1.846-3.017,4.367-3.017c2.602,0,4.238,1.3,4.238,4.134v8.347
	c0,0.807,0.078,1.223,0.572,1.223c0.443,0,0.625-0.391,0.938-1.223H22.396z M17.845,18.018v-4.81L16.7,13.753
	c-2.002,0.937-3.328,2.185-3.328,4.03c0,1.404,0.703,2.105,1.717,2.105S16.856,19.291,17.845,18.018z"/>
</svg>
