<?xml version="1.0" encoding="utf-8"?>
<!-- Generator: Adobe Illustrator 16.0.0, SVG Export Plug-In . SVG Version: 6.00 Build 0)  -->
<!DOCTYPE svg PUBLIC "-//W3C//DTD SVG 1.1//EN" "http://www.w3.org/Graphics/SVG/1.1/DTD/svg11.dtd">
<svg version="1.1" id="Layer_1" xmlns="http://www.w3.org/2000/svg" xmlns:xlink="http://www.w3.org/1999/xlink" x="0px" y="0px"
	 width="34.016px" height="34.016px" viewBox="0 0 34.016 34.016" enable-background="new 0 0 34.016 34.016" xml:space="preserve">
<path d="M17.06,7.552c3.38,0,4.524,1.352,5.174,1.352c0.338,0,0.442-0.156,0.442-1.092H23.3l0.39,7.15h-0.624
	c-0.442-4.265-2.08-6.345-5.59-6.345c-4.55,0-6.578,4.394-6.578,9.958s1.768,9.751,6.656,9.751c1.82,0,3.12-0.728,3.926-1.509
	v-6.136c0-1.586-0.598-2.054-4.811-2.054v-0.625h9.646v0.625c-1.586,0-1.846,0.39-1.846,2.054v5.98
	c-2.054,1.976-4.368,2.729-7.046,2.729c-6.214,0-9.724-4.68-9.724-10.816C7.7,12.413,11.236,7.552,17.06,7.552z"/>
</svg>
