<?xml version="1.0" encoding="utf-8"?>
<!-- Generator: Adobe Illustrator 16.0.0, SVG Export Plug-In . SVG Version: 6.00 Build 0)  -->
<!DOCTYPE svg PUBLIC "-//W3C//DTD SVG 1.1//EN" "http://www.w3.org/Graphics/SVG/1.1/DTD/svg11.dtd">
<svg version="1.1" id="Layer_1" xmlns="http://www.w3.org/2000/svg" xmlns:xlink="http://www.w3.org/1999/xlink" x="0px" y="0px"
	 width="34.02px" height="34.02px" viewBox="0 0 34.02 34.02" enable-background="new 0 0 34.02 34.02" xml:space="preserve">
<path d="M21.896,11.729c0,0.78-0.494,1.456-1.379,1.456c-0.727,0-1.039-0.313-1.273-0.729c-0.182-0.312-0.338-0.441-0.598-0.441
	c-0.78,0-1.378,0.807-2.236,2.314v7.385c0,1.664,0.363,2.053,2.73,2.053v0.625H12.12v-0.625c1.587,0,1.847-0.389,1.847-2.053v-7.827
	c0-1.69,0.025-2.028-1.431-1.3L12.25,12.04l1.949-0.961l1.847-0.937l0.364,0.364v2.34h0.077c0.677-1.223,1.795-2.704,3.485-2.704
	C21.09,10.143,21.896,10.767,21.896,11.729z"/>
</svg>
